<mxfile host="65bd71144e" pages="3">
    <diagram name="MVC" id="6uV4CdO9TaGqWbdg8xYu">
        <mxGraphModel dx="5748" dy="779" grid="0" gridSize="10" guides="1" tooltips="1" connect="1" arrows="1" fold="1" page="0" pageScale="1" pageWidth="850" pageHeight="1100" math="0" shadow="0">
            <root>
                <mxCell id="0"/>
                <mxCell id="1" parent="0"/>
                <mxCell id="1peG2_772NP955prmbWt-12" value="" style="edgeStyle=none;curved=1;rounded=0;orthogonalLoop=1;jettySize=auto;html=1;fontSize=12;startSize=8;endSize=8;" parent="1" source="1peG2_772NP955prmbWt-2" target="1peG2_772NP955prmbWt-3" edge="1">
                    <mxGeometry relative="1" as="geometry"/>
                </mxCell>
                <mxCell id="1peG2_772NP955prmbWt-2" value="Controller" style="ellipse;whiteSpace=wrap;html=1;fontSize=16;" parent="1" vertex="1">
                    <mxGeometry x="-4299" y="170" width="120" height="80" as="geometry"/>
                </mxCell>
                <mxCell id="1peG2_772NP955prmbWt-3" value="DB" style="shape=cylinder3;whiteSpace=wrap;html=1;boundedLbl=1;backgroundOutline=1;size=15;fontSize=16;" parent="1" vertex="1">
                    <mxGeometry x="-4267" y="45" width="60" height="80" as="geometry"/>
                </mxCell>
                <mxCell id="1peG2_772NP955prmbWt-4" value="pg3" style="whiteSpace=wrap;html=1;aspect=fixed;fontSize=16;" parent="1" vertex="1">
                    <mxGeometry x="-4054" y="45" width="80" height="80" as="geometry"/>
                </mxCell>
                <mxCell id="1peG2_772NP955prmbWt-5" value="pg4" style="whiteSpace=wrap;html=1;aspect=fixed;fontSize=16;" parent="1" vertex="1">
                    <mxGeometry x="-4058" y="164" width="80" height="80" as="geometry"/>
                </mxCell>
                <mxCell id="1peG2_772NP955prmbWt-6" value="pg1" style="whiteSpace=wrap;html=1;aspect=fixed;fontSize=16;" parent="1" vertex="1">
                    <mxGeometry x="-4500" y="45" width="80" height="80" as="geometry"/>
                </mxCell>
                <mxCell id="1peG2_772NP955prmbWt-7" value="pg2" style="whiteSpace=wrap;html=1;aspect=fixed;fontSize=16;" parent="1" vertex="1">
                    <mxGeometry x="-4500" y="170" width="80" height="80" as="geometry"/>
                </mxCell>
                <mxCell id="1peG2_772NP955prmbWt-8" value="" style="endArrow=classic;html=1;rounded=0;fontSize=12;startSize=8;endSize=8;curved=1;exitX=0.988;exitY=0.588;exitDx=0;exitDy=0;exitPerimeter=0;strokeWidth=3;" parent="1" source="1peG2_772NP955prmbWt-6" target="1peG2_772NP955prmbWt-2" edge="1">
                    <mxGeometry width="50" height="50" relative="1" as="geometry">
                        <mxPoint x="-4400" y="92" as="sourcePoint"/>
                        <mxPoint x="-4350" y="42" as="targetPoint"/>
                    </mxGeometry>
                </mxCell>
                <mxCell id="1peG2_772NP955prmbWt-9" value="" style="endArrow=classic;html=1;rounded=0;fontSize=12;startSize=8;endSize=8;curved=1;exitX=1;exitY=0.5;exitDx=0;exitDy=0;entryX=0;entryY=0.5;entryDx=0;entryDy=0;strokeWidth=3;" parent="1" source="1peG2_772NP955prmbWt-7" target="1peG2_772NP955prmbWt-2" edge="1">
                    <mxGeometry width="50" height="50" relative="1" as="geometry">
                        <mxPoint x="-4408" y="211" as="sourcePoint"/>
                        <mxPoint x="-4269" y="301" as="targetPoint"/>
                    </mxGeometry>
                </mxCell>
                <mxCell id="1peG2_772NP955prmbWt-10" value="" style="endArrow=classic;html=1;rounded=0;fontSize=12;startSize=8;endSize=8;curved=1;exitX=0;exitY=0.5;exitDx=0;exitDy=0;entryX=0.933;entryY=0.15;entryDx=0;entryDy=0;entryPerimeter=0;strokeWidth=3;" parent="1" source="1peG2_772NP955prmbWt-4" target="1peG2_772NP955prmbWt-2" edge="1">
                    <mxGeometry width="50" height="50" relative="1" as="geometry">
                        <mxPoint x="-3907" y="383" as="sourcePoint"/>
                        <mxPoint x="-4075" y="404" as="targetPoint"/>
                    </mxGeometry>
                </mxCell>
                <mxCell id="1peG2_772NP955prmbWt-11" value="" style="endArrow=classic;html=1;rounded=0;fontSize=12;startSize=8;endSize=8;curved=1;entryX=1.025;entryY=0.613;entryDx=0;entryDy=0;entryPerimeter=0;strokeWidth=3;" parent="1" target="1peG2_772NP955prmbWt-2" edge="1">
                    <mxGeometry width="50" height="50" relative="1" as="geometry">
                        <mxPoint x="-4065" y="216" as="sourcePoint"/>
                        <mxPoint x="-4116" y="224" as="targetPoint"/>
                    </mxGeometry>
                </mxCell>
                <mxCell id="1peG2_772NP955prmbWt-14" value="" style="endArrow=classic;html=1;rounded=0;fontSize=12;startSize=8;endSize=8;curved=1;entryX=1;entryY=0.25;entryDx=0;entryDy=0;exitX=0;exitY=0;exitDx=0;exitDy=27.5;exitPerimeter=0;fillColor=#d5e8d4;strokeColor=#82b366;strokeWidth=3;" parent="1" source="1peG2_772NP955prmbWt-3" target="1peG2_772NP955prmbWt-6" edge="1">
                    <mxGeometry width="50" height="50" relative="1" as="geometry">
                        <mxPoint x="-3907" y="383" as="sourcePoint"/>
                        <mxPoint x="-3857" y="333" as="targetPoint"/>
                    </mxGeometry>
                </mxCell>
                <mxCell id="1peG2_772NP955prmbWt-15" value="" style="endArrow=classic;html=1;rounded=0;fontSize=12;startSize=8;endSize=8;curved=1;entryX=1;entryY=0.25;entryDx=0;entryDy=0;exitX=0;exitY=0;exitDx=0;exitDy=52.5;exitPerimeter=0;fillColor=#d5e8d4;strokeColor=#82b366;strokeWidth=3;" parent="1" source="1peG2_772NP955prmbWt-3" target="1peG2_772NP955prmbWt-7" edge="1">
                    <mxGeometry width="50" height="50" relative="1" as="geometry">
                        <mxPoint x="-4257" y="83" as="sourcePoint"/>
                        <mxPoint x="-4410" y="75" as="targetPoint"/>
                    </mxGeometry>
                </mxCell>
                <mxCell id="1peG2_772NP955prmbWt-16" value="" style="endArrow=classic;html=1;rounded=0;fontSize=12;startSize=8;endSize=8;curved=1;exitX=1;exitY=0;exitDx=0;exitDy=27.5;exitPerimeter=0;entryX=0;entryY=0.25;entryDx=0;entryDy=0;fillColor=#d5e8d4;strokeColor=#82b366;strokeWidth=3;" parent="1" source="1peG2_772NP955prmbWt-3" target="1peG2_772NP955prmbWt-4" edge="1">
                    <mxGeometry width="50" height="50" relative="1" as="geometry">
                        <mxPoint x="-3907" y="383" as="sourcePoint"/>
                        <mxPoint x="-3857" y="333" as="targetPoint"/>
                    </mxGeometry>
                </mxCell>
                <mxCell id="1peG2_772NP955prmbWt-17" value="" style="endArrow=classic;html=1;rounded=0;fontSize=12;startSize=8;endSize=8;curved=1;exitX=1;exitY=0;exitDx=0;exitDy=27.5;exitPerimeter=0;entryX=0;entryY=0.25;entryDx=0;entryDy=0;fillColor=#d5e8d4;strokeColor=#82b366;strokeWidth=4;" parent="1" target="1peG2_772NP955prmbWt-5" edge="1">
                    <mxGeometry width="50" height="50" relative="1" as="geometry">
                        <mxPoint x="-4207" y="101" as="sourcePoint"/>
                        <mxPoint x="-4054" y="93" as="targetPoint"/>
                    </mxGeometry>
                </mxCell>
            </root>
        </mxGraphModel>
    </diagram>
    <diagram id="FG5MMLfxdfUiBJVSxwLW" name="FOLDERS STRUCTURE">
        <mxGraphModel dx="4348" dy="779" grid="1" gridSize="10" guides="1" tooltips="1" connect="1" arrows="1" fold="1" page="1" pageScale="1" pageWidth="850" pageHeight="1100" math="0" shadow="0">
            <root>
                <mxCell id="0"/>
                <mxCell id="1" parent="0"/>
                <mxCell id="luyhuvE_ywFcKUfKgkOA-1" value="clone repo" style="whiteSpace=wrap;html=1;aspect=fixed;fontSize=16;" parent="1" vertex="1">
                    <mxGeometry x="-3302" y="10" width="80" height="80" as="geometry"/>
                </mxCell>
                <mxCell id="luyhuvE_ywFcKUfKgkOA-2" value="config folder" style="whiteSpace=wrap;html=1;aspect=fixed;fontSize=16;" parent="1" vertex="1">
                    <mxGeometry x="-3302" y="250" width="80" height="80" as="geometry"/>
                </mxCell>
                <mxCell id="luyhuvE_ywFcKUfKgkOA-3" value="db folder" style="whiteSpace=wrap;html=1;aspect=fixed;fontSize=16;" parent="1" vertex="1">
                    <mxGeometry x="-3302" y="622" width="80" height="80" as="geometry"/>
                </mxCell>
                <mxCell id="luyhuvE_ywFcKUfKgkOA-4" value="public" style="whiteSpace=wrap;html=1;aspect=fixed;fontSize=16;" parent="1" vertex="1">
                    <mxGeometry x="-3302" y="1130" width="80" height="80" as="geometry"/>
                </mxCell>
                <mxCell id="luyhuvE_ywFcKUfKgkOA-5" value="connection.js" style="rounded=0;whiteSpace=wrap;html=1;fontSize=16;" parent="1" vertex="1">
                    <mxGeometry x="-3161" y="263.5" width="114" height="53" as="geometry"/>
                </mxCell>
                <mxCell id="luyhuvE_ywFcKUfKgkOA-6" value="schema.sql" style="rounded=0;whiteSpace=wrap;html=1;fontSize=16;" parent="1" vertex="1">
                    <mxGeometry x="-3170" y="638" width="120" height="60" as="geometry"/>
                </mxCell>
                <mxCell id="luyhuvE_ywFcKUfKgkOA-7" value="" style="edgeStyle=none;curved=1;rounded=0;orthogonalLoop=1;jettySize=auto;html=1;fontSize=12;startSize=8;endSize=8;" parent="1" source="luyhuvE_ywFcKUfKgkOA-8" target="luyhuvE_ywFcKUfKgkOA-4" edge="1">
                    <mxGeometry relative="1" as="geometry"/>
                </mxCell>
                <mxCell id="luyhuvE_ywFcKUfKgkOA-8" value="models" style="whiteSpace=wrap;html=1;aspect=fixed;fontSize=16;" parent="1" vertex="1">
                    <mxGeometry x="-3302" y="997" width="80" height="80" as="geometry"/>
                </mxCell>
                <mxCell id="luyhuvE_ywFcKUfKgkOA-9" value="index.js,table1.js, table2.js, table3.js..." style="rounded=1;whiteSpace=wrap;html=1;fontSize=16;" parent="1" vertex="1">
                    <mxGeometry x="-3181" y="1013" width="344" height="60" as="geometry"/>
                </mxCell>
                <mxCell id="luyhuvE_ywFcKUfKgkOA-10" value="controllers" style="whiteSpace=wrap;html=1;aspect=fixed;fontSize=16;" parent="1" vertex="1">
                    <mxGeometry x="-3302" y="381" width="80" height="80" as="geometry"/>
                </mxCell>
                <mxCell id="luyhuvE_ywFcKUfKgkOA-11" value="index.js&lt;br&gt;homeroutes.js" style="rounded=1;whiteSpace=wrap;html=1;fontSize=16;" parent="1" vertex="1">
                    <mxGeometry x="-3095" y="391" width="120" height="60" as="geometry"/>
                </mxCell>
                <mxCell id="luyhuvE_ywFcKUfKgkOA-12" value="api" style="whiteSpace=wrap;html=1;aspect=fixed;fontSize=16;" parent="1" vertex="1">
                    <mxGeometry x="-3091" y="476" width="80" height="80" as="geometry"/>
                </mxCell>
                <mxCell id="luyhuvE_ywFcKUfKgkOA-13" value="index.js&lt;br&gt;userroutes.js" style="rounded=1;whiteSpace=wrap;html=1;fontSize=16;" parent="1" vertex="1">
                    <mxGeometry x="-2931" y="486" width="120" height="60" as="geometry"/>
                </mxCell>
                <mxCell id="luyhuvE_ywFcKUfKgkOA-14" value="js" style="whiteSpace=wrap;html=1;aspect=fixed;fontSize=16;" parent="1" vertex="1">
                    <mxGeometry x="-3082" y="1255" width="80" height="80" as="geometry"/>
                </mxCell>
                <mxCell id="luyhuvE_ywFcKUfKgkOA-15" value="css" style="whiteSpace=wrap;html=1;aspect=fixed;fontSize=16;" parent="1" vertex="1">
                    <mxGeometry x="-3077" y="1137" width="80" height="80" as="geometry"/>
                </mxCell>
                <mxCell id="luyhuvE_ywFcKUfKgkOA-16" value="images" style="whiteSpace=wrap;html=1;aspect=fixed;fontSize=16;" parent="1" vertex="1">
                    <mxGeometry x="-3082" y="1366" width="80" height="80" as="geometry"/>
                </mxCell>
                <mxCell id="luyhuvE_ywFcKUfKgkOA-17" value="style.css" style="rounded=0;whiteSpace=wrap;html=1;fontSize=16;" parent="1" vertex="1">
                    <mxGeometry x="-2877" y="1157" width="120" height="60" as="geometry"/>
                </mxCell>
                <mxCell id="luyhuvE_ywFcKUfKgkOA-18" value="login, logout, etc" style="rounded=0;whiteSpace=wrap;html=1;fontSize=16;" parent="1" vertex="1">
                    <mxGeometry x="-2907.5" y="1727" width="247" height="60" as="geometry"/>
                </mxCell>
                <mxCell id="luyhuvE_ywFcKUfKgkOA-19" value="bunch of images" style="rounded=0;whiteSpace=wrap;html=1;fontSize=16;" parent="1" vertex="1">
                    <mxGeometry x="-2925" y="1379" width="250" height="60" as="geometry"/>
                </mxCell>
                <mxCell id="luyhuvE_ywFcKUfKgkOA-20" value="routes" style="whiteSpace=wrap;html=1;aspect=fixed;fontSize=16;" parent="1" vertex="1">
                    <mxGeometry x="-3302" y="1485" width="80" height="80" as="geometry"/>
                </mxCell>
                <mxCell id="luyhuvE_ywFcKUfKgkOA-21" value="api" style="whiteSpace=wrap;html=1;aspect=fixed;fontSize=16;" parent="1" vertex="1">
                    <mxGeometry x="-3061" y="1485" width="80" height="80" as="geometry"/>
                </mxCell>
                <mxCell id="luyhuvE_ywFcKUfKgkOA-22" value="authenti&lt;br&gt;cation" style="whiteSpace=wrap;html=1;aspect=fixed;fontSize=16;" parent="1" vertex="1">
                    <mxGeometry x="-3061" y="1618" width="80" height="80" as="geometry"/>
                </mxCell>
                <mxCell id="luyhuvE_ywFcKUfKgkOA-23" value="index.js" style="rounded=0;whiteSpace=wrap;html=1;fontSize=16;" parent="1" vertex="1">
                    <mxGeometry x="-3061" y="1729" width="108" height="60" as="geometry"/>
                </mxCell>
                <mxCell id="luyhuvE_ywFcKUfKgkOA-24" value="index, roue1, route2" style="rounded=0;whiteSpace=wrap;html=1;fontSize=16;" parent="1" vertex="1">
                    <mxGeometry x="-2910.5" y="1491" width="250" height="60" as="geometry"/>
                </mxCell>
                <mxCell id="luyhuvE_ywFcKUfKgkOA-25" value="index, a1,a2" style="rounded=0;whiteSpace=wrap;html=1;fontSize=16;" parent="1" vertex="1">
                    <mxGeometry x="-2904" y="1631" width="250" height="60" as="geometry"/>
                </mxCell>
                <mxCell id="luyhuvE_ywFcKUfKgkOA-26" value="utils" style="whiteSpace=wrap;html=1;aspect=fixed;fontSize=16;" parent="1" vertex="1">
                    <mxGeometry x="-3302" y="1848" width="80" height="80" as="geometry"/>
                </mxCell>
                <mxCell id="luyhuvE_ywFcKUfKgkOA-27" value="authentication, helpers, etc" style="rounded=0;whiteSpace=wrap;html=1;fontSize=16;" parent="1" vertex="1">
                    <mxGeometry x="-3167" y="1858" width="250" height="60" as="geometry"/>
                </mxCell>
                <mxCell id="luyhuvE_ywFcKUfKgkOA-28" value="views" style="whiteSpace=wrap;html=1;aspect=fixed;fontSize=16;" parent="1" vertex="1">
                    <mxGeometry x="-3302" y="1974" width="80" height="80" as="geometry"/>
                </mxCell>
                <mxCell id="luyhuvE_ywFcKUfKgkOA-29" value="layout" style="whiteSpace=wrap;html=1;aspect=fixed;fontSize=16;" parent="1" vertex="1">
                    <mxGeometry x="-3057" y="1974" width="80" height="80" as="geometry"/>
                </mxCell>
                <mxCell id="luyhuvE_ywFcKUfKgkOA-30" value="partials" style="whiteSpace=wrap;html=1;aspect=fixed;fontSize=16;" parent="1" vertex="1">
                    <mxGeometry x="-3055" y="2087" width="80" height="80" as="geometry"/>
                </mxCell>
                <mxCell id="luyhuvE_ywFcKUfKgkOA-31" value="handlebars" style="rounded=0;whiteSpace=wrap;html=1;fontSize=16;" parent="1" vertex="1">
                    <mxGeometry x="-3057" y="2210" width="250" height="60" as="geometry"/>
                </mxCell>
                <mxCell id="luyhuvE_ywFcKUfKgkOA-32" value="gitignore" style="rounded=1;whiteSpace=wrap;html=1;fontSize=16;" parent="1" vertex="1">
                    <mxGeometry x="-3314" y="2312" width="120" height="60" as="geometry"/>
                </mxCell>
                <mxCell id="luyhuvE_ywFcKUfKgkOA-33" value="dotenvi" style="rounded=1;whiteSpace=wrap;html=1;fontSize=16;" parent="1" vertex="1">
                    <mxGeometry x="-3314" y="2428" width="120" height="60" as="geometry"/>
                </mxCell>
                <mxCell id="luyhuvE_ywFcKUfKgkOA-34" value="license" style="rounded=1;whiteSpace=wrap;html=1;fontSize=16;" parent="1" vertex="1">
                    <mxGeometry x="-3314" y="2542" width="120" height="60" as="geometry"/>
                </mxCell>
                <mxCell id="luyhuvE_ywFcKUfKgkOA-35" value="package-lock" style="rounded=1;whiteSpace=wrap;html=1;fontSize=16;" parent="1" vertex="1">
                    <mxGeometry x="-3314" y="2655" width="120" height="60" as="geometry"/>
                </mxCell>
                <mxCell id="luyhuvE_ywFcKUfKgkOA-36" value="package.json" style="rounded=1;whiteSpace=wrap;html=1;fontSize=16;" parent="1" vertex="1">
                    <mxGeometry x="-3314" y="2775" width="120" height="60" as="geometry"/>
                </mxCell>
                <mxCell id="luyhuvE_ywFcKUfKgkOA-37" value="readme" style="rounded=1;whiteSpace=wrap;html=1;fontSize=16;" parent="1" vertex="1">
                    <mxGeometry x="-3314" y="2892" width="120" height="60" as="geometry"/>
                </mxCell>
                <mxCell id="luyhuvE_ywFcKUfKgkOA-38" value="npm install, bcrypt, dotenv, express, express handlebars,mysql2, sequelize, nodemon, express-session, &lt;br&gt;connect-session" style="rounded=0;whiteSpace=wrap;html=1;fontSize=16;" parent="1" vertex="1">
                    <mxGeometry x="-3159" y="136" width="767" height="60" as="geometry"/>
                </mxCell>
                <mxCell id="luyhuvE_ywFcKUfKgkOA-41" value="" style="endArrow=classic;html=1;rounded=0;fontSize=12;startSize=8;endSize=8;curved=1;entryX=0.5;entryY=0;entryDx=0;entryDy=0;exitX=0.5;exitY=1;exitDx=0;exitDy=0;" parent="1" source="luyhuvE_ywFcKUfKgkOA-2" target="luyhuvE_ywFcKUfKgkOA-10" edge="1">
                    <mxGeometry width="50" height="50" relative="1" as="geometry">
                        <mxPoint x="-3267" y="351" as="sourcePoint"/>
                        <mxPoint x="-3217" y="301" as="targetPoint"/>
                    </mxGeometry>
                </mxCell>
                <mxCell id="luyhuvE_ywFcKUfKgkOA-42" value="" style="endArrow=classic;html=1;rounded=0;fontSize=12;startSize=8;endSize=8;curved=1;entryX=0.5;entryY=0;entryDx=0;entryDy=0;exitX=0.5;exitY=1;exitDx=0;exitDy=0;" parent="1" source="luyhuvE_ywFcKUfKgkOA-10" target="luyhuvE_ywFcKUfKgkOA-3" edge="1">
                    <mxGeometry width="50" height="50" relative="1" as="geometry">
                        <mxPoint x="-3267" y="493" as="sourcePoint"/>
                        <mxPoint x="-3267" y="544" as="targetPoint"/>
                    </mxGeometry>
                </mxCell>
                <mxCell id="luyhuvE_ywFcKUfKgkOA-43" value="" style="endArrow=classic;html=1;rounded=0;fontSize=12;startSize=8;endSize=8;curved=1;exitX=0.5;exitY=1;exitDx=0;exitDy=0;entryX=0.5;entryY=0;entryDx=0;entryDy=0;" parent="1" source="luyhuvE_ywFcKUfKgkOA-8" target="luyhuvE_ywFcKUfKgkOA-4" edge="1">
                    <mxGeometry width="50" height="50" relative="1" as="geometry">
                        <mxPoint x="-3262" y="1082" as="sourcePoint"/>
                        <mxPoint x="-3262.5" y="1137" as="targetPoint"/>
                    </mxGeometry>
                </mxCell>
                <mxCell id="luyhuvE_ywFcKUfKgkOA-44" value="" style="endArrow=classic;html=1;rounded=0;fontSize=12;startSize=8;endSize=8;curved=1;exitX=0.5;exitY=1;exitDx=0;exitDy=0;entryX=0.5;entryY=0;entryDx=0;entryDy=0;" parent="1" source="luyhuvE_ywFcKUfKgkOA-4" target="luyhuvE_ywFcKUfKgkOA-20" edge="1">
                    <mxGeometry width="50" height="50" relative="1" as="geometry">
                        <mxPoint x="-3242" y="953" as="sourcePoint"/>
                        <mxPoint x="-3242" y="1017" as="targetPoint"/>
                    </mxGeometry>
                </mxCell>
                <mxCell id="luyhuvE_ywFcKUfKgkOA-45" value="" style="endArrow=classic;html=1;rounded=0;fontSize=12;startSize=8;endSize=8;curved=1;exitX=0.5;exitY=1;exitDx=0;exitDy=0;entryX=0.5;entryY=0;entryDx=0;entryDy=0;" parent="1" source="luyhuvE_ywFcKUfKgkOA-20" target="luyhuvE_ywFcKUfKgkOA-26" edge="1">
                    <mxGeometry width="50" height="50" relative="1" as="geometry">
                        <mxPoint x="-3268" y="1573" as="sourcePoint"/>
                        <mxPoint x="-3268" y="1848" as="targetPoint"/>
                    </mxGeometry>
                </mxCell>
                <mxCell id="luyhuvE_ywFcKUfKgkOA-46" value="" style="endArrow=classic;html=1;rounded=0;fontSize=12;startSize=8;endSize=8;curved=1;exitX=0.5;exitY=1;exitDx=0;exitDy=0;entryX=0.5;entryY=0;entryDx=0;entryDy=0;" parent="1" source="luyhuvE_ywFcKUfKgkOA-26" target="luyhuvE_ywFcKUfKgkOA-28" edge="1">
                    <mxGeometry width="50" height="50" relative="1" as="geometry">
                        <mxPoint x="-3254" y="1947" as="sourcePoint"/>
                        <mxPoint x="-3204" y="1897" as="targetPoint"/>
                    </mxGeometry>
                </mxCell>
                <mxCell id="luyhuvE_ywFcKUfKgkOA-47" value="" style="endArrow=classic;html=1;rounded=0;fontSize=12;startSize=8;endSize=8;curved=1;entryX=0.45;entryY=0.033;entryDx=0;entryDy=0;exitX=0.5;exitY=1;exitDx=0;exitDy=0;entryPerimeter=0;" parent="1" source="luyhuvE_ywFcKUfKgkOA-28" target="luyhuvE_ywFcKUfKgkOA-32" edge="1">
                    <mxGeometry width="50" height="50" relative="1" as="geometry">
                        <mxPoint x="-3262" y="2090" as="sourcePoint"/>
                        <mxPoint x="-3262.5" y="2136" as="targetPoint"/>
                    </mxGeometry>
                </mxCell>
                <mxCell id="luyhuvE_ywFcKUfKgkOA-48" value="" style="endArrow=classic;html=1;rounded=0;fontSize=12;startSize=8;endSize=8;curved=1;entryX=0.5;entryY=0;entryDx=0;entryDy=0;exitX=0.5;exitY=1;exitDx=0;exitDy=0;" parent="1" source="luyhuvE_ywFcKUfKgkOA-32" target="luyhuvE_ywFcKUfKgkOA-33" edge="1">
                    <mxGeometry width="50" height="50" relative="1" as="geometry">
                        <mxPoint x="-3257" y="2399" as="sourcePoint"/>
                        <mxPoint x="-3254.5" y="2424" as="targetPoint"/>
                    </mxGeometry>
                </mxCell>
                <mxCell id="luyhuvE_ywFcKUfKgkOA-49" value="" style="endArrow=classic;html=1;rounded=0;fontSize=12;startSize=8;endSize=8;curved=1;entryX=0.5;entryY=0;entryDx=0;entryDy=0;exitX=0.5;exitY=1;exitDx=0;exitDy=0;" parent="1" source="luyhuvE_ywFcKUfKgkOA-33" target="luyhuvE_ywFcKUfKgkOA-34" edge="1">
                    <mxGeometry width="50" height="50" relative="1" as="geometry">
                        <mxPoint x="-3254.5" y="2498" as="sourcePoint"/>
                        <mxPoint x="-3254.5" y="2548" as="targetPoint"/>
                    </mxGeometry>
                </mxCell>
                <mxCell id="luyhuvE_ywFcKUfKgkOA-50" value="" style="endArrow=classic;html=1;rounded=0;fontSize=12;startSize=8;endSize=8;curved=1;exitX=0.5;exitY=1;exitDx=0;exitDy=0;" parent="1" source="luyhuvE_ywFcKUfKgkOA-34" target="luyhuvE_ywFcKUfKgkOA-35" edge="1">
                    <mxGeometry width="50" height="50" relative="1" as="geometry">
                        <mxPoint x="-3246.5" y="2645" as="sourcePoint"/>
                        <mxPoint x="-3246.5" y="2691" as="targetPoint"/>
                    </mxGeometry>
                </mxCell>
                <mxCell id="luyhuvE_ywFcKUfKgkOA-51" value="" style="endArrow=classic;html=1;rounded=0;fontSize=12;startSize=8;endSize=8;curved=1;exitX=0.5;exitY=1;exitDx=0;exitDy=0;entryX=0.5;entryY=0;entryDx=0;entryDy=0;" parent="1" source="luyhuvE_ywFcKUfKgkOA-35" target="luyhuvE_ywFcKUfKgkOA-36" edge="1">
                    <mxGeometry width="50" height="50" relative="1" as="geometry">
                        <mxPoint x="-3243" y="2911" as="sourcePoint"/>
                        <mxPoint x="-3243" y="2957" as="targetPoint"/>
                    </mxGeometry>
                </mxCell>
                <mxCell id="luyhuvE_ywFcKUfKgkOA-52" value="" style="endArrow=classic;html=1;rounded=0;fontSize=12;startSize=8;endSize=8;curved=1;exitX=0.5;exitY=1;exitDx=0;exitDy=0;" parent="1" source="luyhuvE_ywFcKUfKgkOA-36" target="luyhuvE_ywFcKUfKgkOA-37" edge="1">
                    <mxGeometry width="50" height="50" relative="1" as="geometry">
                        <mxPoint x="-3241.5" y="3017" as="sourcePoint"/>
                        <mxPoint x="-3241.5" y="3063" as="targetPoint"/>
                    </mxGeometry>
                </mxCell>
                <mxCell id="luyhuvE_ywFcKUfKgkOA-53" value="" style="endArrow=classic;html=1;rounded=0;fontSize=12;startSize=8;endSize=8;curved=1;exitX=0.5;exitY=1;exitDx=0;exitDy=0;entryX=0.5;entryY=0;entryDx=0;entryDy=0;" parent="1" source="luyhuvE_ywFcKUfKgkOA-37" target="luyhuvE_ywFcKUfKgkOA-54" edge="1">
                    <mxGeometry width="50" height="50" relative="1" as="geometry">
                        <mxPoint x="-3254" y="3019" as="sourcePoint"/>
                        <mxPoint x="-3246.5" y="3161" as="targetPoint"/>
                    </mxGeometry>
                </mxCell>
                <mxCell id="luyhuvE_ywFcKUfKgkOA-54" value="server.js" style="rounded=1;whiteSpace=wrap;html=1;fontSize=16;" parent="1" vertex="1">
                    <mxGeometry x="-3314" y="3012" width="120" height="60" as="geometry"/>
                </mxCell>
                <mxCell id="luyhuvE_ywFcKUfKgkOA-55" value="" style="endArrow=classic;html=1;rounded=0;fontSize=12;startSize=8;endSize=8;curved=1;exitX=1;exitY=0.588;exitDx=0;exitDy=0;exitPerimeter=0;entryX=0;entryY=0.5;entryDx=0;entryDy=0;" parent="1" source="luyhuvE_ywFcKUfKgkOA-4" target="luyhuvE_ywFcKUfKgkOA-15" edge="1">
                    <mxGeometry width="50" height="50" relative="1" as="geometry">
                        <mxPoint x="-3214" y="1183" as="sourcePoint"/>
                        <mxPoint x="-3164" y="1133" as="targetPoint"/>
                    </mxGeometry>
                </mxCell>
                <mxCell id="luyhuvE_ywFcKUfKgkOA-56" value="" style="endArrow=classic;html=1;rounded=0;fontSize=12;startSize=8;endSize=8;curved=1;exitX=1;exitY=0.5;exitDx=0;exitDy=0;entryX=0;entryY=0.5;entryDx=0;entryDy=0;" parent="1" source="luyhuvE_ywFcKUfKgkOA-20" target="luyhuvE_ywFcKUfKgkOA-21" edge="1">
                    <mxGeometry width="50" height="50" relative="1" as="geometry">
                        <mxPoint x="-2997" y="1373" as="sourcePoint"/>
                        <mxPoint x="-2947" y="1323" as="targetPoint"/>
                    </mxGeometry>
                </mxCell>
                <mxCell id="luyhuvE_ywFcKUfKgkOA-57" value="" style="endArrow=classic;html=1;rounded=0;fontSize=12;startSize=8;endSize=8;curved=1;exitX=1;exitY=0.5;exitDx=0;exitDy=0;entryX=0;entryY=0.5;entryDx=0;entryDy=0;" parent="1" source="luyhuvE_ywFcKUfKgkOA-26" target="luyhuvE_ywFcKUfKgkOA-27" edge="1">
                    <mxGeometry width="50" height="50" relative="1" as="geometry">
                        <mxPoint x="-2997" y="1773" as="sourcePoint"/>
                        <mxPoint x="-2947" y="1723" as="targetPoint"/>
                    </mxGeometry>
                </mxCell>
                <mxCell id="luyhuvE_ywFcKUfKgkOA-58" value="" style="endArrow=classic;html=1;rounded=0;fontSize=12;startSize=8;endSize=8;curved=1;exitX=1;exitY=0.5;exitDx=0;exitDy=0;" parent="1" source="luyhuvE_ywFcKUfKgkOA-28" target="luyhuvE_ywFcKUfKgkOA-29" edge="1">
                    <mxGeometry width="50" height="50" relative="1" as="geometry">
                        <mxPoint x="-2997" y="1773" as="sourcePoint"/>
                        <mxPoint x="-2947" y="1723" as="targetPoint"/>
                    </mxGeometry>
                </mxCell>
                <mxCell id="luyhuvE_ywFcKUfKgkOA-59" value="" style="endArrow=classic;html=1;rounded=0;fontSize=12;startSize=8;endSize=8;curved=1;exitX=1;exitY=0.588;exitDx=0;exitDy=0;exitPerimeter=0;entryX=0;entryY=0.5;entryDx=0;entryDy=0;" parent="1" source="luyhuvE_ywFcKUfKgkOA-8" target="luyhuvE_ywFcKUfKgkOA-9" edge="1">
                    <mxGeometry width="50" height="50" relative="1" as="geometry">
                        <mxPoint x="-2997" y="1173" as="sourcePoint"/>
                        <mxPoint x="-2947" y="1123" as="targetPoint"/>
                    </mxGeometry>
                </mxCell>
                <mxCell id="luyhuvE_ywFcKUfKgkOA-60" value="" style="endArrow=classic;html=1;rounded=0;fontSize=12;startSize=8;endSize=8;curved=1;exitX=0.988;exitY=0.588;exitDx=0;exitDy=0;exitPerimeter=0;entryX=0;entryY=0.5;entryDx=0;entryDy=0;" parent="1" source="luyhuvE_ywFcKUfKgkOA-3" target="luyhuvE_ywFcKUfKgkOA-6" edge="1">
                    <mxGeometry width="50" height="50" relative="1" as="geometry">
                        <mxPoint x="-3192" y="742" as="sourcePoint"/>
                        <mxPoint x="-3142" y="692" as="targetPoint"/>
                    </mxGeometry>
                </mxCell>
                <mxCell id="luyhuvE_ywFcKUfKgkOA-61" value="" style="endArrow=classic;html=1;rounded=0;fontSize=12;startSize=8;endSize=8;curved=1;exitX=1;exitY=0.5;exitDx=0;exitDy=0;entryX=0;entryY=0.5;entryDx=0;entryDy=0;" parent="1" source="luyhuvE_ywFcKUfKgkOA-10" target="luyhuvE_ywFcKUfKgkOA-11" edge="1">
                    <mxGeometry width="50" height="50" relative="1" as="geometry">
                        <mxPoint x="-3212" y="421" as="sourcePoint"/>
                        <mxPoint x="-3162" y="371" as="targetPoint"/>
                    </mxGeometry>
                </mxCell>
                <mxCell id="luyhuvE_ywFcKUfKgkOA-62" value="" style="endArrow=classic;html=1;rounded=0;fontSize=12;startSize=8;endSize=8;curved=1;exitX=1;exitY=0.5;exitDx=0;exitDy=0;entryX=0;entryY=0.5;entryDx=0;entryDy=0;" parent="1" source="luyhuvE_ywFcKUfKgkOA-2" target="luyhuvE_ywFcKUfKgkOA-5" edge="1">
                    <mxGeometry width="50" height="50" relative="1" as="geometry">
                        <mxPoint x="-3211" y="300" as="sourcePoint"/>
                        <mxPoint x="-3161" y="250" as="targetPoint"/>
                    </mxGeometry>
                </mxCell>
                <mxCell id="luyhuvE_ywFcKUfKgkOA-63" value="" style="endArrow=classic;html=1;rounded=0;fontSize=12;startSize=8;endSize=8;curved=1;exitX=1;exitY=0.5;exitDx=0;exitDy=0;" parent="1" source="luyhuvE_ywFcKUfKgkOA-64" target="luyhuvE_ywFcKUfKgkOA-38" edge="1">
                    <mxGeometry width="50" height="50" relative="1" as="geometry">
                        <mxPoint x="-3222" y="163" as="sourcePoint"/>
                        <mxPoint x="-3164" y="119" as="targetPoint"/>
                    </mxGeometry>
                </mxCell>
                <mxCell id="luyhuvE_ywFcKUfKgkOA-64" value="install&lt;br&gt;libraries" style="ellipse;whiteSpace=wrap;html=1;aspect=fixed;fontSize=16;" parent="1" vertex="1">
                    <mxGeometry x="-3302" y="124" width="80" height="80" as="geometry"/>
                </mxCell>
                <mxCell id="luyhuvE_ywFcKUfKgkOA-65" value="" style="endArrow=classic;html=1;rounded=0;fontSize=12;startSize=8;endSize=8;curved=1;exitX=0.5;exitY=1;exitDx=0;exitDy=0;entryX=0.5;entryY=0;entryDx=0;entryDy=0;" parent="1" source="luyhuvE_ywFcKUfKgkOA-1" target="luyhuvE_ywFcKUfKgkOA-64" edge="1">
                    <mxGeometry width="50" height="50" relative="1" as="geometry">
                        <mxPoint x="-3196" y="85" as="sourcePoint"/>
                        <mxPoint x="-3146" y="35" as="targetPoint"/>
                    </mxGeometry>
                </mxCell>
                <mxCell id="luyhuvE_ywFcKUfKgkOA-66" value="" style="endArrow=classic;html=1;rounded=0;fontSize=12;startSize=8;endSize=8;curved=1;exitX=0.5;exitY=1;exitDx=0;exitDy=0;entryX=0.5;entryY=0;entryDx=0;entryDy=0;" parent="1" source="luyhuvE_ywFcKUfKgkOA-64" target="luyhuvE_ywFcKUfKgkOA-2" edge="1">
                    <mxGeometry width="50" height="50" relative="1" as="geometry">
                        <mxPoint x="-3195" y="235" as="sourcePoint"/>
                        <mxPoint x="-3145" y="185" as="targetPoint"/>
                    </mxGeometry>
                </mxCell>
                <mxCell id="luyhuvE_ywFcKUfKgkOA-67" value="seeds" style="whiteSpace=wrap;html=1;aspect=fixed;" parent="1" vertex="1">
                    <mxGeometry x="-3302" y="791" width="80" height="80" as="geometry"/>
                </mxCell>
                <mxCell id="luyhuvE_ywFcKUfKgkOA-68" value="index.js" style="rounded=0;whiteSpace=wrap;html=1;fontSize=16;" parent="1" vertex="1">
                    <mxGeometry x="-2880" y="1263" width="120" height="60" as="geometry"/>
                </mxCell>
                <mxCell id="luyhuvE_ywFcKUfKgkOA-69" value="index.js,table1.js, table2.js, table3.js..." style="rounded=1;whiteSpace=wrap;html=1;fontSize=16;" parent="1" vertex="1">
                    <mxGeometry x="-3167" y="801" width="344" height="60" as="geometry"/>
                </mxCell>
                <mxCell id="luyhuvE_ywFcKUfKgkOA-70" value="" style="endArrow=classic;html=1;rounded=0;fontSize=12;startSize=8;endSize=8;curved=1;exitX=1;exitY=0.5;exitDx=0;exitDy=0;entryX=0;entryY=0.5;entryDx=0;entryDy=0;" parent="1" source="luyhuvE_ywFcKUfKgkOA-67" target="luyhuvE_ywFcKUfKgkOA-69" edge="1">
                    <mxGeometry width="50" height="50" relative="1" as="geometry">
                        <mxPoint x="-3212" y="1054" as="sourcePoint"/>
                        <mxPoint x="-3171" y="1053" as="targetPoint"/>
                    </mxGeometry>
                </mxCell>
                <mxCell id="luyhuvE_ywFcKUfKgkOA-71" value="" style="endArrow=classic;html=1;rounded=0;exitX=0.5;exitY=1;exitDx=0;exitDy=0;entryX=0.5;entryY=0;entryDx=0;entryDy=0;" parent="1" source="luyhuvE_ywFcKUfKgkOA-3" target="luyhuvE_ywFcKUfKgkOA-67" edge="1">
                    <mxGeometry width="50" height="50" relative="1" as="geometry">
                        <mxPoint x="-3212" y="749" as="sourcePoint"/>
                        <mxPoint x="-3162" y="699" as="targetPoint"/>
                    </mxGeometry>
                </mxCell>
                <mxCell id="luyhuvE_ywFcKUfKgkOA-72" value="" style="endArrow=classic;html=1;rounded=0;exitX=0.5;exitY=1;exitDx=0;exitDy=0;entryX=0.5;entryY=0;entryDx=0;entryDy=0;" parent="1" source="luyhuvE_ywFcKUfKgkOA-67" target="luyhuvE_ywFcKUfKgkOA-8" edge="1">
                    <mxGeometry width="50" height="50" relative="1" as="geometry">
                        <mxPoint x="-3218" y="939" as="sourcePoint"/>
                        <mxPoint x="-3168" y="889" as="targetPoint"/>
                    </mxGeometry>
                </mxCell>
                <mxCell id="luyhuvE_ywFcKUfKgkOA-73" value="" style="endArrow=classic;html=1;rounded=0;" parent="1" target="luyhuvE_ywFcKUfKgkOA-17" edge="1">
                    <mxGeometry width="50" height="50" relative="1" as="geometry">
                        <mxPoint x="-2998" y="1189" as="sourcePoint"/>
                        <mxPoint x="-2948" y="1139" as="targetPoint"/>
                    </mxGeometry>
                </mxCell>
                <mxCell id="luyhuvE_ywFcKUfKgkOA-74" value="" style="endArrow=classic;html=1;rounded=0;exitX=1;exitY=0.5;exitDx=0;exitDy=0;entryX=0;entryY=0.5;entryDx=0;entryDy=0;" parent="1" source="luyhuvE_ywFcKUfKgkOA-14" target="luyhuvE_ywFcKUfKgkOA-68" edge="1">
                    <mxGeometry width="50" height="50" relative="1" as="geometry">
                        <mxPoint x="-2979" y="1300" as="sourcePoint"/>
                        <mxPoint x="-2929" y="1250" as="targetPoint"/>
                    </mxGeometry>
                </mxCell>
                <mxCell id="luyhuvE_ywFcKUfKgkOA-75" value="" style="endArrow=classic;html=1;rounded=0;exitX=1;exitY=0.5;exitDx=0;exitDy=0;entryX=0;entryY=0.5;entryDx=0;entryDy=0;" parent="1" source="luyhuvE_ywFcKUfKgkOA-16" target="luyhuvE_ywFcKUfKgkOA-19" edge="1">
                    <mxGeometry width="50" height="50" relative="1" as="geometry">
                        <mxPoint x="-2999" y="1423" as="sourcePoint"/>
                        <mxPoint x="-2949" y="1373" as="targetPoint"/>
                    </mxGeometry>
                </mxCell>
                <mxCell id="luyhuvE_ywFcKUfKgkOA-76" value="" style="edgeStyle=elbowEdgeStyle;elbow=vertical;endArrow=classic;html=1;curved=0;rounded=0;endSize=8;startSize=8;exitX=0.75;exitY=1;exitDx=0;exitDy=0;" parent="1" source="luyhuvE_ywFcKUfKgkOA-4" edge="1">
                    <mxGeometry width="50" height="50" relative="1" as="geometry">
                        <mxPoint x="-2987" y="1440" as="sourcePoint"/>
                        <mxPoint x="-3185" y="1400" as="targetPoint"/>
                        <Array as="points">
                            <mxPoint x="-3217" y="1280"/>
                        </Array>
                    </mxGeometry>
                </mxCell>
                <mxCell id="luyhuvE_ywFcKUfKgkOA-77" value="" style="endArrow=classic;html=1;rounded=0;entryX=0.025;entryY=0.425;entryDx=0;entryDy=0;entryPerimeter=0;" parent="1" target="luyhuvE_ywFcKUfKgkOA-16" edge="1">
                    <mxGeometry width="50" height="50" relative="1" as="geometry">
                        <mxPoint x="-3186" y="1400" as="sourcePoint"/>
                        <mxPoint x="-3133" y="1367" as="targetPoint"/>
                    </mxGeometry>
                </mxCell>
                <mxCell id="luyhuvE_ywFcKUfKgkOA-78" value="" style="edgeStyle=elbowEdgeStyle;elbow=vertical;endArrow=classic;html=1;curved=0;rounded=0;endSize=8;startSize=8;exitX=1;exitY=0.5;exitDx=0;exitDy=0;" parent="1" source="luyhuvE_ywFcKUfKgkOA-4" edge="1">
                    <mxGeometry width="50" height="50" relative="1" as="geometry">
                        <mxPoint x="-2987" y="1440" as="sourcePoint"/>
                        <mxPoint x="-3153" y="1293" as="targetPoint"/>
                        <Array as="points">
                            <mxPoint x="-3147" y="1198"/>
                        </Array>
                    </mxGeometry>
                </mxCell>
                <mxCell id="luyhuvE_ywFcKUfKgkOA-79" value="" style="endArrow=classic;html=1;rounded=0;entryX=0;entryY=0.5;entryDx=0;entryDy=0;" parent="1" target="luyhuvE_ywFcKUfKgkOA-14" edge="1">
                    <mxGeometry width="50" height="50" relative="1" as="geometry">
                        <mxPoint x="-3152" y="1295" as="sourcePoint"/>
                        <mxPoint x="-3090" y="1244" as="targetPoint"/>
                    </mxGeometry>
                </mxCell>
                <mxCell id="luyhuvE_ywFcKUfKgkOA-80" value="" style="edgeStyle=elbowEdgeStyle;elbow=vertical;endArrow=classic;html=1;curved=0;rounded=0;endSize=8;startSize=8;exitX=1;exitY=0.5;exitDx=0;exitDy=0;" parent="1" source="luyhuvE_ywFcKUfKgkOA-20" target="luyhuvE_ywFcKUfKgkOA-23" edge="1">
                    <mxGeometry width="50" height="50" relative="1" as="geometry">
                        <mxPoint x="-2987" y="1740" as="sourcePoint"/>
                        <mxPoint x="-3062" y="1766" as="targetPoint"/>
                        <Array as="points">
                            <mxPoint x="-3151" y="1764"/>
                        </Array>
                    </mxGeometry>
                </mxCell>
                <mxCell id="luyhuvE_ywFcKUfKgkOA-81" value="" style="edgeStyle=elbowEdgeStyle;elbow=vertical;endArrow=classic;html=1;curved=0;rounded=0;endSize=8;startSize=8;" parent="1" edge="1">
                    <mxGeometry width="50" height="50" relative="1" as="geometry">
                        <mxPoint x="-3222" y="1545" as="sourcePoint"/>
                        <mxPoint x="-3144" y="1658" as="targetPoint"/>
                        <Array as="points">
                            <mxPoint x="-3162" y="1545"/>
                        </Array>
                    </mxGeometry>
                </mxCell>
                <mxCell id="luyhuvE_ywFcKUfKgkOA-82" value="" style="endArrow=classic;html=1;rounded=0;entryX=0;entryY=0.5;entryDx=0;entryDy=0;" parent="1" target="luyhuvE_ywFcKUfKgkOA-22" edge="1">
                    <mxGeometry width="50" height="50" relative="1" as="geometry">
                        <mxPoint x="-3147" y="1658" as="sourcePoint"/>
                        <mxPoint x="-3078" y="1643" as="targetPoint"/>
                    </mxGeometry>
                </mxCell>
                <mxCell id="luyhuvE_ywFcKUfKgkOA-83" value="" style="edgeStyle=elbowEdgeStyle;elbow=vertical;endArrow=classic;html=1;curved=0;rounded=0;endSize=8;startSize=8;exitX=1;exitY=0.75;exitDx=0;exitDy=0;" parent="1" source="luyhuvE_ywFcKUfKgkOA-10" edge="1">
                    <mxGeometry width="50" height="50" relative="1" as="geometry">
                        <mxPoint x="-3225" y="533" as="sourcePoint"/>
                        <mxPoint x="-3161" y="521" as="targetPoint"/>
                        <Array as="points">
                            <mxPoint x="-3186" y="441"/>
                        </Array>
                    </mxGeometry>
                </mxCell>
                <mxCell id="luyhuvE_ywFcKUfKgkOA-84" value="" style="endArrow=classic;html=1;rounded=0;entryX=0;entryY=0.5;entryDx=0;entryDy=0;" parent="1" target="luyhuvE_ywFcKUfKgkOA-12" edge="1">
                    <mxGeometry width="50" height="50" relative="1" as="geometry">
                        <mxPoint x="-3161" y="516" as="sourcePoint"/>
                        <mxPoint x="-3101" y="477" as="targetPoint"/>
                    </mxGeometry>
                </mxCell>
                <mxCell id="luyhuvE_ywFcKUfKgkOA-85" value="" style="endArrow=classic;html=1;rounded=0;exitX=1;exitY=0.5;exitDx=0;exitDy=0;entryX=0;entryY=0.5;entryDx=0;entryDy=0;" parent="1" source="luyhuvE_ywFcKUfKgkOA-12" target="luyhuvE_ywFcKUfKgkOA-13" edge="1">
                    <mxGeometry width="50" height="50" relative="1" as="geometry">
                        <mxPoint x="-2874" y="414" as="sourcePoint"/>
                        <mxPoint x="-2824" y="364" as="targetPoint"/>
                    </mxGeometry>
                </mxCell>
                <mxCell id="luyhuvE_ywFcKUfKgkOA-86" value="" style="edgeStyle=elbowEdgeStyle;elbow=vertical;endArrow=classic;html=1;curved=0;rounded=0;endSize=8;startSize=8;exitX=1;exitY=0.75;exitDx=0;exitDy=0;" parent="1" source="luyhuvE_ywFcKUfKgkOA-28" edge="1">
                    <mxGeometry width="50" height="50" relative="1" as="geometry">
                        <mxPoint x="-2987" y="2240" as="sourcePoint"/>
                        <mxPoint x="-3222" y="2240" as="targetPoint"/>
                    </mxGeometry>
                </mxCell>
                <mxCell id="luyhuvE_ywFcKUfKgkOA-87" value="" style="endArrow=classic;html=1;rounded=0;entryX=0;entryY=0.5;entryDx=0;entryDy=0;" parent="1" target="luyhuvE_ywFcKUfKgkOA-31" edge="1">
                    <mxGeometry width="50" height="50" relative="1" as="geometry">
                        <mxPoint x="-3221" y="2242" as="sourcePoint"/>
                        <mxPoint x="-3098" y="2198" as="targetPoint"/>
                    </mxGeometry>
                </mxCell>
                <mxCell id="luyhuvE_ywFcKUfKgkOA-88" value="" style="edgeStyle=elbowEdgeStyle;elbow=vertical;endArrow=classic;html=1;curved=0;rounded=0;endSize=8;startSize=8;exitX=1;exitY=0.75;exitDx=0;exitDy=0;" parent="1" source="luyhuvE_ywFcKUfKgkOA-28" edge="1">
                    <mxGeometry width="50" height="50" relative="1" as="geometry">
                        <mxPoint x="-2987" y="2240" as="sourcePoint"/>
                        <mxPoint x="-3136" y="2130" as="targetPoint"/>
                        <Array as="points">
                            <mxPoint x="-3172" y="2034"/>
                        </Array>
                    </mxGeometry>
                </mxCell>
                <mxCell id="luyhuvE_ywFcKUfKgkOA-89" value="" style="endArrow=classic;html=1;rounded=0;entryX=0;entryY=0.5;entryDx=0;entryDy=0;" parent="1" target="luyhuvE_ywFcKUfKgkOA-30" edge="1">
                    <mxGeometry width="50" height="50" relative="1" as="geometry">
                        <mxPoint x="-3139" y="2128" as="sourcePoint"/>
                        <mxPoint x="-2937" y="2190" as="targetPoint"/>
                    </mxGeometry>
                </mxCell>
                <mxCell id="yUIOZ0uNobZxIAcYIFw6-1" value="login" style="whiteSpace=wrap;html=1;aspect=fixed;" parent="1" vertex="1">
                    <mxGeometry x="-2430" y="600" width="80" height="80" as="geometry"/>
                </mxCell>
                <mxCell id="yUIOZ0uNobZxIAcYIFw6-3" value="main page" style="whiteSpace=wrap;html=1;aspect=fixed;" parent="1" vertex="1">
                    <mxGeometry x="-2250" y="600" width="80" height="80" as="geometry"/>
                </mxCell>
                <mxCell id="yUIOZ0uNobZxIAcYIFw6-4" value="library" style="whiteSpace=wrap;html=1;aspect=fixed;" parent="1" vertex="1">
                    <mxGeometry x="-2050" y="451" width="80" height="80" as="geometry"/>
                </mxCell>
                <mxCell id="yUIOZ0uNobZxIAcYIFw6-5" value="platforms" style="whiteSpace=wrap;html=1;aspect=fixed;" parent="1" vertex="1">
                    <mxGeometry x="-2030" y="600" width="80" height="80" as="geometry"/>
                </mxCell>
                <mxCell id="yUIOZ0uNobZxIAcYIFw6-6" value="gamers collection" style="whiteSpace=wrap;html=1;aspect=fixed;" parent="1" vertex="1">
                    <mxGeometry x="-2010" y="750" width="80" height="80" as="geometry"/>
                </mxCell>
                <mxCell id="yUIOZ0uNobZxIAcYIFw6-7" value="" style="endArrow=classic;html=1;rounded=0;" parent="1" edge="1">
                    <mxGeometry width="50" height="50" relative="1" as="geometry">
                        <mxPoint x="-2340" y="640" as="sourcePoint"/>
                        <mxPoint x="-2260" y="640" as="targetPoint"/>
                    </mxGeometry>
                </mxCell>
                <mxCell id="yUIOZ0uNobZxIAcYIFw6-8" value="" style="endArrow=classic;html=1;rounded=0;" parent="1" edge="1">
                    <mxGeometry width="50" height="50" relative="1" as="geometry">
                        <mxPoint x="-2140" y="581" as="sourcePoint"/>
                        <mxPoint x="-2090" y="531" as="targetPoint"/>
                    </mxGeometry>
                </mxCell>
                <mxCell id="yUIOZ0uNobZxIAcYIFw6-9" value="" style="endArrow=classic;html=1;rounded=0;" parent="1" edge="1">
                    <mxGeometry width="50" height="50" relative="1" as="geometry">
                        <mxPoint x="-2140" y="650" as="sourcePoint"/>
                        <mxPoint x="-2050" y="640" as="targetPoint"/>
                    </mxGeometry>
                </mxCell>
                <mxCell id="yUIOZ0uNobZxIAcYIFw6-10" value="" style="endArrow=classic;html=1;rounded=0;" parent="1" edge="1">
                    <mxGeometry width="50" height="50" relative="1" as="geometry">
                        <mxPoint x="-2160" y="702" as="sourcePoint"/>
                        <mxPoint x="-2030" y="790" as="targetPoint"/>
                    </mxGeometry>
                </mxCell>
                <mxCell id="yUIOZ0uNobZxIAcYIFw6-11" value="users" style="whiteSpace=wrap;html=1;aspect=fixed;" parent="1" vertex="1">
                    <mxGeometry x="-2200" y="820" width="80" height="80" as="geometry"/>
                </mxCell>
            </root>
        </mxGraphModel>
    </diagram>
    <diagram id="R1RItMydYzrDCcRQQKOO" name="flow">
        <mxGraphModel dx="948" dy="779" grid="1" gridSize="10" guides="1" tooltips="1" connect="1" arrows="1" fold="1" page="1" pageScale="1" pageWidth="850" pageHeight="1100" math="0" shadow="0">
            <root>
                <mxCell id="0"/>
                <mxCell id="1" parent="0"/>
                <mxCell id="E7DVF6kXArfE3Tdb5iX0-1" value="home page" style="whiteSpace=wrap;html=1;aspect=fixed;" parent="1" vertex="1">
                    <mxGeometry x="80" y="200" width="80" height="80" as="geometry"/>
                </mxCell>
                <mxCell id="E7DVF6kXArfE3Tdb5iX0-2" value="all games" style="whiteSpace=wrap;html=1;aspect=fixed;" parent="1" vertex="1">
                    <mxGeometry x="250" y="70" width="80" height="80" as="geometry"/>
                </mxCell>
                <mxCell id="E7DVF6kXArfE3Tdb5iX0-3" value="all&lt;br&gt;platforms" style="whiteSpace=wrap;html=1;aspect=fixed;" parent="1" vertex="1">
                    <mxGeometry x="250" y="200" width="80" height="80" as="geometry"/>
                </mxCell>
                <mxCell id="E7DVF6kXArfE3Tdb5iX0-4" value="all genres" style="whiteSpace=wrap;html=1;aspect=fixed;" parent="1" vertex="1">
                    <mxGeometry x="250" y="320" width="80" height="80" as="geometry"/>
                </mxCell>
                <mxCell id="E7DVF6kXArfE3Tdb5iX0-6" value="" style="endArrow=classic;html=1;rounded=0;exitX=1;exitY=0.5;exitDx=0;exitDy=0;entryX=0;entryY=0.5;entryDx=0;entryDy=0;" parent="1" source="E7DVF6kXArfE3Tdb5iX0-1" target="E7DVF6kXArfE3Tdb5iX0-3" edge="1">
                    <mxGeometry width="50" height="50" relative="1" as="geometry">
                        <mxPoint x="170" y="250" as="sourcePoint"/>
                        <mxPoint x="220" y="200" as="targetPoint"/>
                    </mxGeometry>
                </mxCell>
                <mxCell id="E7DVF6kXArfE3Tdb5iX0-7" value="" style="edgeStyle=elbowEdgeStyle;elbow=horizontal;endArrow=classic;html=1;curved=0;rounded=0;endSize=8;startSize=8;entryX=0;entryY=0.5;entryDx=0;entryDy=0;exitX=1;exitY=0.25;exitDx=0;exitDy=0;" parent="1" source="E7DVF6kXArfE3Tdb5iX0-1" target="E7DVF6kXArfE3Tdb5iX0-2" edge="1">
                    <mxGeometry width="50" height="50" relative="1" as="geometry">
                        <mxPoint x="200" y="170" as="sourcePoint"/>
                        <mxPoint x="180" y="110" as="targetPoint"/>
                        <Array as="points">
                            <mxPoint x="200" y="170"/>
                        </Array>
                    </mxGeometry>
                </mxCell>
                <mxCell id="E7DVF6kXArfE3Tdb5iX0-8" value="" style="edgeStyle=elbowEdgeStyle;elbow=horizontal;endArrow=classic;html=1;curved=0;rounded=0;endSize=8;startSize=8;exitX=1;exitY=0.75;exitDx=0;exitDy=0;entryX=0;entryY=0.5;entryDx=0;entryDy=0;" parent="1" source="E7DVF6kXArfE3Tdb5iX0-1" target="E7DVF6kXArfE3Tdb5iX0-4" edge="1">
                    <mxGeometry width="50" height="50" relative="1" as="geometry">
                        <mxPoint x="160" y="360" as="sourcePoint"/>
                        <mxPoint x="210" y="310" as="targetPoint"/>
                    </mxGeometry>
                </mxCell>
                <mxCell id="E7DVF6kXArfE3Tdb5iX0-10" value="" style="edgeStyle=elbowEdgeStyle;elbow=horizontal;endArrow=classic;html=1;curved=0;rounded=0;endSize=8;startSize=8;exitX=0.5;exitY=1;exitDx=0;exitDy=0;entryX=0;entryY=0.5;entryDx=0;entryDy=0;" parent="1" source="E7DVF6kXArfE3Tdb5iX0-1" target="E7DVF6kXArfE3Tdb5iX0-21" edge="1">
                    <mxGeometry width="50" height="50" relative="1" as="geometry">
                        <mxPoint x="400" y="450" as="sourcePoint"/>
                        <mxPoint x="450" y="400" as="targetPoint"/>
                        <Array as="points">
                            <mxPoint x="120" y="390"/>
                        </Array>
                    </mxGeometry>
                </mxCell>
                <mxCell id="E7DVF6kXArfE3Tdb5iX0-12" value="all games" style="whiteSpace=wrap;html=1;aspect=fixed;fillColor=#008a00;fontColor=#ffffff;strokeColor=#005700;" parent="1" vertex="1">
                    <mxGeometry x="425" y="70" width="80" height="80" as="geometry"/>
                </mxCell>
                <mxCell id="E7DVF6kXArfE3Tdb5iX0-13" value="all&lt;br&gt;platforms" style="whiteSpace=wrap;html=1;aspect=fixed;fillColor=#008a00;fontColor=#ffffff;strokeColor=#005700;" parent="1" vertex="1">
                    <mxGeometry x="425" y="200" width="80" height="80" as="geometry"/>
                </mxCell>
                <mxCell id="E7DVF6kXArfE3Tdb5iX0-14" value="all genres" style="whiteSpace=wrap;html=1;aspect=fixed;fillColor=#008a00;fontColor=#ffffff;strokeColor=#005700;" parent="1" vertex="1">
                    <mxGeometry x="425" y="320" width="80" height="80" as="geometry"/>
                </mxCell>
                <mxCell id="E7DVF6kXArfE3Tdb5iX0-15" value="" style="endArrow=classic;html=1;rounded=0;entryX=0.013;entryY=0.613;entryDx=0;entryDy=0;entryPerimeter=0;" parent="1" target="E7DVF6kXArfE3Tdb5iX0-12" edge="1">
                    <mxGeometry width="50" height="50" relative="1" as="geometry">
                        <mxPoint x="330" y="120" as="sourcePoint"/>
                        <mxPoint x="380" y="70" as="targetPoint"/>
                    </mxGeometry>
                </mxCell>
                <mxCell id="E7DVF6kXArfE3Tdb5iX0-16" value="" style="endArrow=classic;html=1;rounded=0;exitX=1;exitY=0.5;exitDx=0;exitDy=0;entryX=0;entryY=0.5;entryDx=0;entryDy=0;" parent="1" source="E7DVF6kXArfE3Tdb5iX0-3" target="E7DVF6kXArfE3Tdb5iX0-13" edge="1">
                    <mxGeometry width="50" height="50" relative="1" as="geometry">
                        <mxPoint x="370" y="240.5" as="sourcePoint"/>
                        <mxPoint x="410" y="240" as="targetPoint"/>
                    </mxGeometry>
                </mxCell>
                <mxCell id="E7DVF6kXArfE3Tdb5iX0-17" value="" style="endArrow=classic;html=1;rounded=0;exitX=1;exitY=0.5;exitDx=0;exitDy=0;entryX=0;entryY=0.5;entryDx=0;entryDy=0;" parent="1" source="E7DVF6kXArfE3Tdb5iX0-4" target="E7DVF6kXArfE3Tdb5iX0-14" edge="1">
                    <mxGeometry width="50" height="50" relative="1" as="geometry">
                        <mxPoint x="340" y="359.5" as="sourcePoint"/>
                        <mxPoint x="420" y="360" as="targetPoint"/>
                    </mxGeometry>
                </mxCell>
                <mxCell id="E7DVF6kXArfE3Tdb5iX0-18" value="click on" style="text;html=1;strokeColor=none;fillColor=none;align=center;verticalAlign=middle;whiteSpace=wrap;rounded=0;" parent="1" vertex="1">
                    <mxGeometry x="350" y="90" width="60" height="30" as="geometry"/>
                </mxCell>
                <mxCell id="E7DVF6kXArfE3Tdb5iX0-19" value="click on" style="text;html=1;strokeColor=none;fillColor=none;align=center;verticalAlign=middle;whiteSpace=wrap;rounded=0;" parent="1" vertex="1">
                    <mxGeometry x="350" y="210" width="60" height="30" as="geometry"/>
                </mxCell>
                <mxCell id="E7DVF6kXArfE3Tdb5iX0-20" value="click on" style="text;html=1;strokeColor=none;fillColor=none;align=center;verticalAlign=middle;whiteSpace=wrap;rounded=0;" parent="1" vertex="1">
                    <mxGeometry x="350" y="330" width="60" height="30" as="geometry"/>
                </mxCell>
                <mxCell id="E7DVF6kXArfE3Tdb5iX0-21" value="logged in?" style="rhombus;whiteSpace=wrap;html=1;fillColor=#fa6800;fontColor=#000000;strokeColor=#C73500;" parent="1" vertex="1">
                    <mxGeometry x="250" y="440" width="80" height="80" as="geometry"/>
                </mxCell>
                <mxCell id="E7DVF6kXArfE3Tdb5iX0-23" value="" style="endArrow=classic;html=1;rounded=0;exitX=1;exitY=0.5;exitDx=0;exitDy=0;entryX=0;entryY=0.5;entryDx=0;entryDy=0;" parent="1" source="E7DVF6kXArfE3Tdb5iX0-21" target="E7DVF6kXArfE3Tdb5iX0-38" edge="1">
                    <mxGeometry width="50" height="50" relative="1" as="geometry">
                        <mxPoint x="400" y="450" as="sourcePoint"/>
                        <mxPoint x="425" y="480" as="targetPoint"/>
                    </mxGeometry>
                </mxCell>
                <mxCell id="E7DVF6kXArfE3Tdb5iX0-24" value="yes" style="text;html=1;strokeColor=none;fillColor=none;align=center;verticalAlign=middle;whiteSpace=wrap;rounded=0;" parent="1" vertex="1">
                    <mxGeometry x="340" y="450" width="60" height="30" as="geometry"/>
                </mxCell>
                <mxCell id="E7DVF6kXArfE3Tdb5iX0-25" value="member/&lt;br&gt;subscriber" style="whiteSpace=wrap;html=1;aspect=fixed;fillColor=#f0a30a;fontColor=#000000;strokeColor=#BD7000;" parent="1" vertex="1">
                    <mxGeometry x="250" y="590" width="80" height="80" as="geometry"/>
                </mxCell>
                <mxCell id="E7DVF6kXArfE3Tdb5iX0-27" value="" style="endArrow=classic;html=1;rounded=0;exitX=0.5;exitY=1;exitDx=0;exitDy=0;entryX=0.5;entryY=0;entryDx=0;entryDy=0;" parent="1" source="E7DVF6kXArfE3Tdb5iX0-21" target="E7DVF6kXArfE3Tdb5iX0-25" edge="1">
                    <mxGeometry width="50" height="50" relative="1" as="geometry">
                        <mxPoint x="310" y="550" as="sourcePoint"/>
                        <mxPoint x="360" y="500" as="targetPoint"/>
                    </mxGeometry>
                </mxCell>
                <mxCell id="E7DVF6kXArfE3Tdb5iX0-29" value="" style="endArrow=classic;html=1;rounded=0;exitX=1;exitY=0.5;exitDx=0;exitDy=0;entryX=0;entryY=0.5;entryDx=0;entryDy=0;entryPerimeter=0;" parent="1" source="E7DVF6kXArfE3Tdb5iX0-25" target="E7DVF6kXArfE3Tdb5iX0-32" edge="1">
                    <mxGeometry width="50" height="50" relative="1" as="geometry">
                        <mxPoint x="330" y="620" as="sourcePoint"/>
                        <mxPoint x="425" y="630" as="targetPoint"/>
                    </mxGeometry>
                </mxCell>
                <mxCell id="E7DVF6kXArfE3Tdb5iX0-31" value="no" style="text;html=1;strokeColor=none;fillColor=none;align=center;verticalAlign=middle;whiteSpace=wrap;rounded=0;" parent="1" vertex="1">
                    <mxGeometry x="280" y="535" width="60" height="30" as="geometry"/>
                </mxCell>
                <mxCell id="E7DVF6kXArfE3Tdb5iX0-32" value="login" style="whiteSpace=wrap;html=1;aspect=fixed;fillColor=#1ba1e2;fontColor=#ffffff;strokeColor=#006EAF;" parent="1" vertex="1">
                    <mxGeometry x="425" y="590" width="80" height="80" as="geometry"/>
                </mxCell>
                <mxCell id="E7DVF6kXArfE3Tdb5iX0-33" value="yes" style="text;html=1;strokeColor=none;fillColor=none;align=center;verticalAlign=middle;whiteSpace=wrap;rounded=0;" parent="1" vertex="1">
                    <mxGeometry x="340" y="600" width="60" height="30" as="geometry"/>
                </mxCell>
                <mxCell id="E7DVF6kXArfE3Tdb5iX0-34" value="sign up" style="whiteSpace=wrap;html=1;aspect=fixed;fillColor=#e3c800;fontColor=#000000;strokeColor=#B09500;" parent="1" vertex="1">
                    <mxGeometry x="250" y="750" width="80" height="80" as="geometry"/>
                </mxCell>
                <mxCell id="E7DVF6kXArfE3Tdb5iX0-35" value="" style="endArrow=classic;html=1;rounded=0;exitX=0.5;exitY=1;exitDx=0;exitDy=0;entryX=0.5;entryY=0;entryDx=0;entryDy=0;" parent="1" source="E7DVF6kXArfE3Tdb5iX0-25" target="E7DVF6kXArfE3Tdb5iX0-34" edge="1">
                    <mxGeometry width="50" height="50" relative="1" as="geometry">
                        <mxPoint x="290" y="660" as="sourcePoint"/>
                        <mxPoint x="290" y="730" as="targetPoint"/>
                    </mxGeometry>
                </mxCell>
                <mxCell id="E7DVF6kXArfE3Tdb5iX0-36" value="no" style="text;html=1;strokeColor=none;fillColor=none;align=center;verticalAlign=middle;whiteSpace=wrap;rounded=0;" parent="1" vertex="1">
                    <mxGeometry x="290" y="690" width="60" height="30" as="geometry"/>
                </mxCell>
                <mxCell id="E7DVF6kXArfE3Tdb5iX0-37" value="" style="edgeStyle=elbowEdgeStyle;elbow=vertical;endArrow=classic;html=1;curved=0;rounded=0;endSize=8;startSize=8;exitX=1;exitY=0.5;exitDx=0;exitDy=0;entryX=0.5;entryY=1;entryDx=0;entryDy=0;" parent="1" source="E7DVF6kXArfE3Tdb5iX0-34" target="E7DVF6kXArfE3Tdb5iX0-32" edge="1">
                    <mxGeometry width="50" height="50" relative="1" as="geometry">
                        <mxPoint x="425" y="790" as="sourcePoint"/>
                        <mxPoint x="475" y="740" as="targetPoint"/>
                        <Array as="points">
                            <mxPoint x="420" y="790"/>
                        </Array>
                    </mxGeometry>
                </mxCell>
                <mxCell id="E7DVF6kXArfE3Tdb5iX0-38" value="comments" style="whiteSpace=wrap;html=1;aspect=fixed;fillColor=#008a00;fontColor=#ffffff;strokeColor=#005700;" parent="1" vertex="1">
                    <mxGeometry x="580" y="440" width="80" height="80" as="geometry"/>
                </mxCell>
                <mxCell id="E7DVF6kXArfE3Tdb5iX0-40" value="" style="edgeStyle=elbowEdgeStyle;elbow=vertical;endArrow=classic;html=1;curved=0;rounded=0;endSize=8;startSize=8;exitX=1;exitY=0.5;exitDx=0;exitDy=0;entryX=0.5;entryY=1;entryDx=0;entryDy=0;" parent="1" source="E7DVF6kXArfE3Tdb5iX0-32" target="E7DVF6kXArfE3Tdb5iX0-38" edge="1">
                    <mxGeometry width="50" height="50" relative="1" as="geometry">
                        <mxPoint x="570" y="650" as="sourcePoint"/>
                        <mxPoint x="620" y="600" as="targetPoint"/>
                        <Array as="points">
                            <mxPoint x="580" y="630"/>
                        </Array>
                    </mxGeometry>
                </mxCell>
            </root>
        </mxGraphModel>
    </diagram>
</mxfile>